<svg width="17" height="17" viewBox="0 0 17 17" fill="none" xmlns="http://www.w3.org/2000/svg">
<path d="M0.491011 0.961809C0.283647 0.961809 0.115112 0.774315 0.115112 0.543587C0.115112 0.312876 0.283632 0.125366 0.491011 0.125366H2.91689C3.08393 0.125366 3.22549 0.246124 3.27416 0.414044L4.39598 3.67078H15.7782C15.9856 3.67078 16.1541 3.85827 16.1541 4.089C16.1541 4.13934 16.1462 4.1879 16.1315 4.23226L14.1469 11.5859C14.0982 11.767 13.9489 11.8844 13.7872 11.8844V11.8849H6.58716C6.44274 11.8849 6.31147 11.9505 6.21617 12.0565C6.12087 12.1625 6.06193 12.3086 6.06193 12.4693V12.4807C6.06193 12.642 6.12089 12.7885 6.21571 12.894L6.21674 12.8928C6.31203 12.9988 6.4433 13.0644 6.58773 13.0644H13.1148C13.3226 13.0644 13.4907 13.2519 13.4907 13.4826C13.4907 13.7134 13.3221 13.9009 13.1148 13.9009H6.58773C6.23596 13.9009 5.91651 13.7412 5.68504 13.4843L5.68607 13.4832L5.68504 13.482C5.45414 13.2251 5.31063 12.8702 5.31063 12.48V12.4685C5.31063 12.0772 5.45413 11.7217 5.68504 11.4648C5.91594 11.2079 6.23537 11.0483 6.58773 11.0483H13.5087L15.2743 4.5068H4.68522L6.49598 9.76451C6.56967 9.97997 6.47244 10.2216 6.27833 10.3036C6.08467 10.3856 5.86748 10.2774 5.7938 10.0614L3.79486 4.25704C3.78994 4.24445 3.78549 4.23187 3.7816 4.21878L2.65979 0.961713H0.492344L0.491011 0.961809ZM12.1075 14.842C12.5675 14.842 12.9409 15.2569 12.9409 15.7687C12.9409 16.2809 12.568 16.6958 12.1075 16.6958C11.6476 16.6958 11.2746 16.2809 11.2746 15.7687C11.2746 15.2569 11.6476 14.842 12.1075 14.842ZM7.05461 14.842C7.5146 14.842 7.88752 15.2569 7.88752 15.7687C7.88752 16.2809 7.5146 16.6958 7.05461 16.6958C6.59419 16.6958 6.22127 16.2809 6.22127 15.7687C6.22127 15.2569 6.59419 14.842 7.05461 14.842Z" fill="white"/>
</svg>
