<svg width="26" height="26" viewBox="0 0 26 26" fill="none" xmlns="http://www.w3.org/2000/svg">
<path d="M24.6401 2.70702H5.69509L5.6181 2.42281C5.45032 1.81061 5.09801 1.27226 4.61454 0.888292C4.13107 0.504511 3.54246 0.29588 2.93668 0.293945H0.576627C0.272736 0.293945 0.0264893 0.552965 0.0264893 0.87262C0.0264893 1.19208 0.272736 1.4511 0.576627 1.4511H2.93668C3.30338 1.45245 3.65976 1.57857 3.95261 1.81105C4.24526 2.04352 4.45838 2.36939 4.56003 2.73996L7.89292 15.0415C8.1132 15.8445 8.57512 16.5509 9.20942 17.0544C9.84372 17.5579 10.6162 17.8314 11.4107 17.834H23.5498C23.8537 17.834 24.0999 17.5749 24.0999 17.2553C24.0999 16.9358 23.8537 16.6768 23.5498 16.6768H11.4107C10.8551 16.6751 10.3151 16.4837 9.87154 16.1317C9.42804 15.7795 9.10518 15.2856 8.95119 14.724L8.72851 13.9024H20.7851C21.9531 13.9011 23.0727 13.4123 23.8986 12.5436C24.7242 11.6749 25.1887 10.4972 25.19 9.2688V3.28566C25.19 2.9662 24.9438 2.70702 24.6401 2.70702ZM24.09 9.26894C24.0891 10.1905 23.7404 11.0741 23.121 11.7258C22.5014 12.3778 21.6614 12.7443 20.7851 12.7455H8.41504L6.6849 6.36009H18.5741C18.8779 6.36009 19.1242 6.10107 19.1242 5.78141C19.1242 5.46195 18.8779 5.20294 18.5741 5.20294H6.37135L6.00852 3.86427H24.0903L24.09 9.26894Z" fill="#1B1A1A"/>
<path d="M10.4666 19.626C9.78368 19.626 9.12854 19.9112 8.64563 20.4192C8.16273 20.9271 7.89143 21.616 7.89124 22.3344C7.89124 23.0527 8.16235 23.7416 8.64526 24.2496C9.12816 24.7575 9.78311 25.0431 10.466 25.0431C11.1489 25.0431 11.8039 24.7579 12.2868 24.25C12.7699 23.742 13.0412 23.0531 13.0412 22.3348C13.0404 21.6168 12.769 20.9283 12.2862 20.4205C11.8037 19.9127 11.1492 19.627 10.4666 19.626ZM10.4666 23.886C10.0754 23.886 9.70022 23.7227 9.4236 23.4317C9.14696 23.1407 8.99152 22.7461 8.99152 22.3346C8.99133 21.9231 9.14678 21.5285 9.42341 21.2377C9.70005 20.9467 10.0752 20.7832 10.4664 20.7832C10.8576 20.7832 11.2328 20.9467 11.5092 21.2377C11.7858 21.5287 11.9411 21.9233 11.9411 22.3348C11.9407 22.7461 11.7851 23.1403 11.5086 23.4311C11.2322 23.7219 10.8575 23.8854 10.4666 23.886Z" fill="#1B1A1A"/>
<path d="M21.525 19.626C20.8421 19.626 20.1871 19.9112 19.7042 20.4192C19.2211 20.9269 18.9499 21.6158 18.9499 22.3342C18.9497 23.0527 19.221 23.7416 19.7039 24.2496C20.1866 24.7575 20.8415 25.0431 21.5244 25.0431C22.2073 25.0431 22.8625 24.7579 23.3454 24.25C23.8283 23.742 24.0996 23.0531 24.0998 22.3348C24.099 21.6168 23.8274 20.9283 23.3448 20.4205C22.8621 19.9127 22.2078 19.627 21.525 19.626ZM21.525 23.886C21.1338 23.886 20.7586 23.7227 20.482 23.4317C20.2054 23.1407 20.0499 22.7461 20.0499 22.3346C20.0499 21.9231 20.2054 21.5285 20.4818 21.2377C20.7585 20.9467 21.1336 20.7832 21.5248 20.7832C21.916 20.7832 22.2912 20.9467 22.5678 21.2377C22.8443 21.5287 22.9997 21.9233 22.9995 22.3348C22.9991 22.7461 22.8437 23.1403 22.5672 23.4311C22.2908 23.7219 21.916 23.8854 21.525 23.886Z" fill="#1B1A1A"/>
<path d="M20.7654 6.19407C20.869 6.29951 21.0067 6.3594 21.1506 6.36173C21.2244 6.36154 21.2974 6.34584 21.3651 6.3156C21.4309 6.2875 21.4906 6.24621 21.5412 6.19407C21.5931 6.13941 21.6342 6.07448 21.6624 6.00315C21.7513 5.78665 21.7029 5.53487 21.5412 5.37184C21.4909 5.31796 21.4311 5.27473 21.3653 5.24469C21.1596 5.15262 20.9213 5.20302 20.7654 5.37184C20.6039 5.53504 20.5557 5.78682 20.6446 6.00315C20.6724 6.07448 20.7135 6.13941 20.7654 6.19407Z" fill="#1B1A1A"/>
</svg>
