<svg width="18" height="17" viewBox="0 0 18 17" fill="none" xmlns="http://www.w3.org/2000/svg">
<path fill-rule="evenodd" clip-rule="evenodd" d="M8.61325 3.76337C9.02853 2.96472 9.46822 2.33305 9.99376 1.86745C10.7039 1.23858 11.5453 0.924164 12.6564 0.924164C13.8887 0.924164 15.0048 1.47834 15.8126 2.3732C16.6211 3.2679 17.1207 4.50512 17.1207 5.86922C17.1207 9.10861 15.2247 10.708 12.7068 12.8313C11.5352 13.8194 10.2229 14.9259 8.91136 16.3787C8.74707 16.5597 8.48015 16.5597 8.31586 16.3787C7.00444 14.9261 5.69201 13.8185 4.52109 12.8304C2.0016 10.7076 0.105408 9.10753 0.105408 5.8691C0.105408 4.50504 0.605709 3.26778 1.41358 2.37308C2.2213 1.47838 3.33742 0.924204 4.56975 0.924204C5.68078 0.924204 6.52222 1.23863 7.23237 1.86749C7.75794 2.33405 8.1976 2.96556 8.61288 3.76341L8.61325 3.76337ZM10.5178 2.59328C9.9399 3.10451 9.46822 3.8958 8.9889 4.95749C8.94927 5.04433 8.8861 5.1179 8.80107 5.16461C8.59477 5.27941 8.34206 5.186 8.23842 4.95749C7.75913 3.89472 7.28659 3.10451 6.71041 2.59328C6.15621 2.10253 5.47978 1.85713 4.57011 1.85713C3.57033 1.85713 2.66388 2.30682 2.00943 3.03265C1.35416 3.75865 0.948181 4.76159 0.948181 5.86906C0.948181 8.64861 2.70182 10.1272 5.03102 12.0906C6.1387 13.0254 7.37099 14.0649 8.61346 15.3945C9.85593 14.0649 11.0883 13.0256 12.1968 12.0915C14.5249 10.1275 16.2785 8.64765 16.2785 5.86918C16.2785 4.76175 15.8734 3.75865 15.2173 3.03277C14.5628 2.30694 13.6564 1.85725 12.6566 1.85725C11.7458 1.85725 11.0702 2.10264 10.5177 2.5934L10.5178 2.59328Z" fill="white"/>
</svg>
