<svg width="102" height="48" viewBox="0 0 102 48" fill="none" xmlns="http://www.w3.org/2000/svg">
<path d="M40.7353 30.8031C40.6918 30.6351 40.654 30.4618 40.5942 30.3083C40.3622 29.6189 39.9679 28.9844 39.4385 28.4485C38.646 27.6491 37.5853 27.1115 36.4225 26.9203C36.5091 26.0546 36.5905 25.0554 36.6612 23.9523L36.7914 21.5929L36.8455 20.3167C36.8626 20.053 36.8626 19.7887 36.8455 19.5251L36.7804 19.0897L36.6718 18.6594C36.3873 17.7444 35.8193 16.9239 35.0359 16.2959C34.2526 15.6676 33.2876 15.2588 32.2561 15.118C31.6522 15.0614 31.0456 15.0365 30.4386 15.0438C28.2688 15.0141 25.9793 14.9993 23.7171 14.9993C21.4549 14.9993 19.1871 14.9993 16.9957 15.0389C16.3891 15.0324 15.7818 15.0572 15.1781 15.1131C14.1443 15.2508 13.1759 15.6576 12.3896 16.2853C11.6036 16.9125 11.0326 17.7337 10.7457 18.6498C10.6614 18.9348 10.6031 19.2264 10.5724 19.5204C10.5546 19.784 10.5546 20.0483 10.5724 20.3119L10.6265 21.5882L10.7567 23.9475C10.8218 24.9764 10.8979 25.9259 10.9736 26.7275C10.1974 26.8496 9.45834 27.1195 8.80376 27.5187C7.3923 28.3747 6.47306 29.7604 6.29752 31.2978V37.2335C6.29752 37.3919 6.29752 37.5896 6.33007 37.7676C6.36261 37.9457 6.38985 38.1289 6.4224 38.3069C6.76259 39.7254 7.74909 40.9451 9.13488 41.6607C9.80165 42.0075 10.5407 42.2231 11.3047 42.2938C11.4946 42.2938 11.6789 42.2938 11.8473 42.3187H13.1597L16.3713 42.2742C14.9121 43.6046 13.4635 45.7366 13.3822 46.9388C13.5676 47.1154 13.7754 47.271 14.0009 47.4035C14.1803 47.537 14.3771 47.6499 14.5867 47.7399C16.2143 47.1561 18.8019 44.0053 19.1599 42.2345C22.4691 42.18 25.5343 42.111 28.252 42.0317C28.4257 43.7482 31.1382 47.1265 32.8418 47.7351C33.0821 47.6274 33.308 47.4946 33.5143 47.3393C33.7129 47.2248 33.8953 47.0888 34.0569 46.9336C33.9702 45.6179 32.2667 43.2337 30.6935 41.9475C32.2666 41.8929 33.6879 41.8388 34.9465 41.7742C35.3094 41.7001 35.5467 41.3823 35.4892 41.0473C35.5039 40.7433 35.2738 40.4748 34.9465 40.4141C29.9178 40.1667 22.1542 39.9887 13.1653 39.8748H11.6191C11.235 39.8293 10.8656 39.7116 10.5342 39.5287C9.8549 39.1561 9.37883 38.5405 9.22141 37.8322L9.18357 37.5651V31.5649C9.27439 30.8314 9.72017 30.1734 10.3987 29.7708C11.0772 29.3681 11.9177 29.2629 12.6899 29.4837C13.4622 29.7045 14.0863 30.2283 14.3912 30.9122C14.4658 31.0805 14.5165 31.2565 14.543 31.4363C14.5763 31.6509 14.5888 31.8679 14.5812 32.0843V33.786C14.5793 34.1528 14.7417 34.5047 15.03 34.76C15.3187 35.0157 15.7089 35.1534 16.1111 35.1413C21.3787 35.1413 26.4941 35.1016 31.301 35.0523H31.3336C31.7033 35.0523 32.0571 34.9163 32.3156 34.6751C32.5741 34.4343 32.7148 34.1082 32.7057 33.7712V31.7928C32.6955 31.082 32.9998 30.3978 33.55 29.8941C34.0998 29.3906 34.8491 29.1105 35.6282 29.1167C36.4078 29.1229 37.1514 29.4155 37.6914 29.9279C37.9975 30.2087 38.234 30.5462 38.3858 30.9171L38.4781 31.199L38.5379 31.4857V32.1878L38.6245 35.2397L38.6734 36.6692V37.332C38.6737 37.4977 38.6612 37.6636 38.6355 37.8275C38.514 38.4786 38.1659 39.0769 37.6426 39.5337C37.1676 39.9477 36.5728 40.2293 35.9284 40.3452C35.6131 40.4725 35.4292 40.7758 35.4781 41.087C35.4765 41.2409 35.5439 41.3886 35.665 41.4962C35.7857 41.6035 35.9496 41.6612 36.1183 41.656C37.0757 41.5797 37.9873 41.2475 38.7385 40.7013C39.616 40.0764 40.243 39.2055 40.5235 38.2228C40.5893 37.9544 40.631 37.6815 40.648 37.4068C40.648 37.1297 40.648 36.912 40.6805 36.6895L40.7294 35.2599L40.816 32.2081V31.3127C40.7892 31.1595 40.7622 30.9863 40.7353 30.8031ZM32.4839 27.6129C31.7218 28.0621 31.091 28.6732 30.6449 29.3936C30.1983 30.1389 29.9596 30.9729 29.9505 31.8223V32.5048C25.9846 32.4703 21.8456 32.4455 17.598 32.4355V32.0842C17.6071 31.7336 17.5852 31.3831 17.5329 31.0356C17.4735 30.6527 17.3642 30.2773 17.2071 29.9177C16.5831 28.4503 15.2621 27.3203 13.616 26.8463C13.3061 26.7597 12.9886 26.6986 12.6665 26.6631C12.746 25.8519 12.8183 24.9368 12.8834 23.918L13.0136 21.5586L13.0677 20.2823C13.0718 20.1084 13.0885 19.9349 13.1169 19.7627C13.1464 19.6119 13.188 19.4629 13.2417 19.3176C13.4813 18.729 13.9482 18.2401 14.5545 17.9427C14.8697 17.7922 15.2144 17.6998 15.5691 17.6704C15.8404 17.6408 16.475 17.6704 17.0067 17.6704C19.1765 17.7001 21.4659 17.7101 23.7281 17.7101C25.9903 17.7101 28.2581 17.7101 30.4495 17.6656C30.9922 17.6656 31.6158 17.6359 31.8872 17.6656C32.2368 17.6998 32.5763 17.7953 32.8858 17.9475C33.4977 18.2494 33.9669 18.7459 34.2038 19.3425L34.2799 19.565L34.3287 19.7924C34.3567 19.9663 34.373 20.1412 34.3775 20.3169L34.4316 21.5931L34.5565 23.9476C34.6269 25.0359 34.7029 26.0151 34.7896 26.866C33.9699 26.9557 33.1821 27.2109 32.4839 27.6129Z" fill="#1B1A1A"/>
<path d="M37.7729 10.2709C37.8433 7.60479 37.9031 4.68648 37.9409 1.36733C37.9451 1.03126 37.8032 0.707611 37.5458 0.467426C37.2885 0.227241 36.937 0.0899591 36.5688 0.0861609H36.5415L31.0677 0.0364756C30.684 0.0340603 30.3151 0.170692 30.0422 0.416707C29.7694 0.662722 29.6154 0.997746 29.6138 1.34761V3.92471L24.6282 0.31875C24.3679 0.127252 24.0432 0.0227051 23.7087 0.0227051C23.3741 0.0227051 23.0495 0.127252 22.7891 0.31875C13.5993 7.16949 5.01169 13.7881 0.546747 17.5818C0.356786 17.745 0.427543 18.116 0.704168 18.3979C0.980793 18.6797 1.28996 18.7591 1.47992 18.6352C6.29748 15.5486 14.7711 9.58325 23.7058 3.1034L30.1343 7.83212C30.4276 8.0457 30.798 8.15024 31.1723 8.12471C31.5462 8.09952 31.8958 7.94598 32.1512 7.69548C32.4063 7.44499 32.5482 7.11547 32.5486 6.7735V2.69754H35.1634C35.2069 5.66558 35.261 8.3561 35.3314 10.8048V10.8642C35.3416 11.1809 35.507 11.4766 35.7817 11.6705C40.1218 14.7669 43.5339 17.1118 45.9913 18.6648C46.1975 18.7983 46.5718 18.6648 46.8159 18.3581C47.06 18.0513 47.0709 17.7794 46.9082 17.6359C44.7887 15.8155 41.7441 13.3608 37.7729 10.2709Z" fill="#1B1A1A"/>
<path d="M56.135 30.6694V21.4214H57.847V30.6694H56.135ZM56.135 20.0454V18.2534H57.847V20.0454H56.135Z" fill="#555555"/>
<path d="M60.2549 30.6694V21.4214H61.9669V22.3334C62.2762 22.0454 62.6175 21.8001 62.9909 21.5974C63.3642 21.3948 63.7749 21.2934 64.2229 21.2934C64.5962 21.2934 64.8789 21.3894 65.0709 21.5814C65.2736 21.7734 65.4122 22.0134 65.4869 22.3014C65.5722 22.5894 65.6149 22.8828 65.6149 23.1814V30.6694H63.9029V23.6774C63.9029 23.3468 63.8549 23.0908 63.7589 22.9094C63.6629 22.7281 63.4655 22.6374 63.1669 22.6374C62.9749 22.6374 62.7722 22.6961 62.5589 22.8134C62.3562 22.9201 62.1589 23.0534 61.9669 23.2134V30.6694H60.2549Z" fill="#555555"/>
<path d="M70.3101 30.7974C69.8301 30.7974 69.4408 30.7068 69.1421 30.5254C68.8541 30.3441 68.6408 30.0881 68.5021 29.7574C68.3741 29.4268 68.3101 29.0374 68.3101 28.5894V22.5574H67.3341V21.4214H68.3101V18.7174H70.0221V21.4214H71.5101V22.5574H70.0221V28.4774C70.0221 28.8401 70.0808 29.1014 70.1981 29.2614C70.3155 29.4108 70.5395 29.4854 70.8701 29.4854C70.9555 29.4854 71.0515 29.4801 71.1581 29.4694C71.2755 29.4588 71.3875 29.4481 71.4941 29.4374V30.7014C71.2808 30.7334 71.0835 30.7548 70.9021 30.7654C70.7208 30.7868 70.5235 30.7974 70.3101 30.7974Z" fill="#555555"/>
<path d="M75.888 30.7974C75.1627 30.7974 74.6027 30.6588 74.208 30.3814C73.8133 30.0934 73.536 29.6774 73.376 29.1334C73.2267 28.5788 73.152 27.9014 73.152 27.1014V24.9894C73.152 24.1681 73.232 23.4854 73.392 22.9414C73.552 22.3974 73.8293 21.9868 74.224 21.7094C74.6293 21.4321 75.184 21.2934 75.888 21.2934C76.6667 21.2934 77.2373 21.4534 77.6 21.7734C77.9733 22.0934 78.2187 22.5574 78.336 23.1654C78.4533 23.7628 78.512 24.4828 78.512 25.3254V26.0774H74.864V27.9334C74.864 28.3068 74.896 28.6108 74.96 28.8454C75.0347 29.0801 75.1467 29.2561 75.296 29.3734C75.456 29.4801 75.6587 29.5334 75.904 29.5334C76.16 29.5334 76.352 29.4748 76.48 29.3574C76.6187 29.2294 76.7093 29.0534 76.752 28.8294C76.8053 28.5948 76.832 28.3228 76.832 28.0134V27.4534H78.496V27.8054C78.496 28.7334 78.2987 29.4641 77.904 29.9974C77.5093 30.5308 76.8373 30.7974 75.888 30.7974ZM74.864 25.1494H76.832V24.3174C76.832 23.9334 76.8107 23.6134 76.768 23.3574C76.7253 23.0908 76.6347 22.8934 76.496 22.7654C76.368 22.6268 76.16 22.5574 75.872 22.5574C75.5947 22.5574 75.3813 22.6214 75.232 22.7494C75.0933 22.8774 74.9973 23.0961 74.944 23.4054C74.8907 23.7041 74.864 24.1201 74.864 24.6534V25.1494Z" fill="#555555"/>
<path d="M80.6704 30.6694V21.4214H82.3824V22.7334C82.7237 22.1681 83.065 21.7894 83.4064 21.5974C83.7477 21.4054 84.089 21.3094 84.4304 21.3094C84.473 21.3094 84.5104 21.3094 84.5424 21.3094C84.585 21.3094 84.6384 21.3148 84.7024 21.3254V23.2134C84.5744 23.1601 84.425 23.1174 84.2544 23.0854C84.0944 23.0428 83.9291 23.0214 83.7584 23.0214C83.4917 23.0214 83.2464 23.0854 83.0224 23.2134C82.8091 23.3308 82.5957 23.5654 82.3824 23.9174V30.6694H80.6704Z" fill="#555555"/>
<path d="M86.435 30.6694V21.4214H88.147V30.6694H86.435ZM86.435 20.0454V18.2534H88.147V20.0454H86.435Z" fill="#555555"/>
<path d="M93.0989 30.7974C92.4162 30.7974 91.8776 30.6588 91.4829 30.3814C91.0882 30.1041 90.8055 29.7094 90.6349 29.1974C90.4749 28.6854 90.3949 28.0828 90.3949 27.3894V24.7014C90.3949 24.0081 90.4749 23.4054 90.6349 22.8934C90.8055 22.3814 91.0882 21.9868 91.4829 21.7094C91.8776 21.4321 92.4162 21.2934 93.0989 21.2934C93.7816 21.2934 94.3149 21.4321 94.6989 21.7094C95.0935 21.9868 95.3709 22.3814 95.5309 22.8934C95.7016 23.4054 95.7869 24.0081 95.7869 24.7014V27.3894C95.7869 28.0828 95.7016 28.6854 95.5309 29.1974C95.3709 29.7094 95.0935 30.1041 94.6989 30.3814C94.3149 30.6588 93.7816 30.7974 93.0989 30.7974ZM93.0989 29.5334C93.4296 29.5334 93.6589 29.4374 93.7869 29.2454C93.9255 29.0534 94.0056 28.8028 94.0269 28.4934C94.0589 28.1734 94.0749 27.8428 94.0749 27.5014V24.6054C94.0749 24.2534 94.0589 23.9228 94.0269 23.6134C94.0056 23.3041 93.9255 23.0534 93.7869 22.8614C93.6589 22.6588 93.4296 22.5574 93.0989 22.5574C92.7682 22.5574 92.5335 22.6588 92.3949 22.8614C92.2562 23.0534 92.1709 23.3041 92.1389 23.6134C92.1176 23.9228 92.1069 24.2534 92.1069 24.6054V27.5014C92.1069 27.8428 92.1176 28.1734 92.1389 28.4934C92.1709 28.8028 92.2562 29.0534 92.3949 29.2454C92.5335 29.4374 92.7682 29.5334 93.0989 29.5334Z" fill="#555555"/>
<path d="M97.9598 30.6694V21.4214H99.6718V22.7334C100.013 22.1681 100.354 21.7894 100.696 21.5974C101.037 21.4054 101.378 21.3094 101.72 21.3094C101.762 21.3094 101.8 21.3094 101.832 21.3094C101.874 21.3094 101.928 21.3148 101.992 21.3254V23.2134C101.864 23.1601 101.714 23.1174 101.544 23.0854C101.384 23.0428 101.218 23.0214 101.048 23.0214C100.781 23.0214 100.536 23.0854 100.312 23.2134C100.098 23.3308 99.8851 23.5654 99.6718 23.9174V30.6694H97.9598Z" fill="#555555"/>
</svg>
