<svg width="15" height="17" viewBox="0 0 15 17" fill="none" xmlns="http://www.w3.org/2000/svg">
<path d="M7.23955 1.14165C7.23955 1.33608 7.11245 1.49512 6.93768 1.51289C3.44267 1.67193 0.710197 4.85348 0.710197 8.742C0.710197 11.0044 1.64747 13.1078 3.25208 14.4864V11.7467C3.25208 11.5523 3.39504 11.3933 3.56978 11.3933C3.74454 11.3933 3.88749 11.5523 3.88749 11.7467V15.2818C3.88749 15.4762 3.74453 15.6352 3.56978 15.6352H0.392497C0.21774 15.6352 0.0747964 15.4762 0.0747964 15.2818C0.0747964 15.0873 0.217749 14.9283 0.392497 14.9283H2.7278C1.0597 13.4258 0.0747681 11.1458 0.0747681 8.742C0.0747681 4.46463 3.0773 0.982634 6.90594 0.788208C7.08069 0.788208 7.22364 0.947256 7.2395 1.14168L7.23955 1.14165ZM11.7195 2.55569H14.0548C14.2296 2.55569 14.3725 2.39664 14.3725 2.20222C14.3725 2.00778 14.2296 1.84875 14.0548 1.84875H10.8775C10.7028 1.84875 10.5598 2.00779 10.5598 2.20222V5.73724C10.5598 5.93167 10.7028 6.09071 10.8775 6.09071C11.0523 6.09071 11.1952 5.93166 11.1952 5.73724V2.99756C12.7998 4.37622 13.7371 6.47956 13.7371 8.74197C13.7371 12.6128 11.0205 15.7943 7.54142 15.9888C7.36667 16.0064 7.22372 16.1656 7.23955 16.36C7.2554 16.5544 7.38251 16.6959 7.55725 16.6959H7.5731C11.3858 16.4837 14.3725 13.0018 14.3725 8.74206C14.3725 6.33825 13.3876 4.05816 11.7195 2.55578L11.7195 2.55569Z" fill="white"/>
</svg>
