<svg width="24" height="27" viewBox="0 0 24 27" fill="none" xmlns="http://www.w3.org/2000/svg">
<path d="M15.7853 19.0946C14.218 20.2769 12.301 20.9733 10.2295 20.9733C4.93652 20.9733 0.644836 16.4276 0.644836 10.8214C0.644836 5.21511 4.93652 0.669434 10.2295 0.669434C15.5225 0.669434 19.8142 5.21511 19.8142 10.8214C19.8142 13.6246 18.7419 16.1626 17.0065 17.9997L23.7689 25.1624C24.079 25.4908 24.0712 26.0176 23.7599 26.3471C23.4465 26.679 22.9479 26.6814 22.6414 26.3567L15.7842 19.0937L15.7853 19.0946ZM10.2295 19.7789C14.9 19.7789 18.6866 15.7683 18.6866 10.8214C18.6866 5.87445 14.9 1.86378 10.2295 1.86378C5.55902 1.86378 1.77245 5.87445 1.77245 10.8214C1.77245 15.7683 5.55902 19.7789 10.2295 19.7789Z" fill="#1B1A1A"/>
</svg>
