<svg width="19" height="18" viewBox="0 0 19 18" fill="none" xmlns="http://www.w3.org/2000/svg">
<path fill-rule="evenodd" clip-rule="evenodd" d="M9.6934 0.000384373C9.52233 0.00801594 9.37394 0.126381 9.32128 0.297265L7.39453 6.56011L1.12155 6.5471C0.944053 6.5468 0.786534 6.66666 0.731742 6.84368C0.676952 7.0207 0.737163 7.21463 0.880841 7.32386L5.9638 11.1814L4.01207 17.4377L4.01221 17.4376C3.957 17.6146 4.01692 17.8085 4.1606 17.9181C4.30414 18.0275 4.49861 18.0273 4.64201 17.9176L9.71073 14.0382L14.7813 17.9176V17.9175C14.9247 18.0272 15.1191 18.0273 15.2628 17.9179C15.4064 17.8084 15.4663 17.6143 15.4111 17.4374L13.4593 11.1811L18.5423 7.32356L18.5424 7.32371C18.6863 7.21447 18.7465 7.02054 18.6917 6.84338C18.6368 6.66635 18.4794 6.54649 18.3017 6.54694L12.0288 6.55996L10.0999 0.297112C10.0434 0.113655 9.87713 -0.00769871 9.6935 0.000380282L9.6934 0.000384373Z" fill="#F5CC26"/>
</svg>
