<svg width="86" height="14" viewBox="0 0 86 14" fill="none" xmlns="http://www.w3.org/2000/svg">
<path fill-rule="evenodd" clip-rule="evenodd" d="M5.3333 4.77142C5.46435 4.75608 5.57451 4.66712 5.62822 4.53294L7.42935 0.0253105L9.23048 4.53264C9.28388 4.66683 9.39404 4.75578 9.52539 4.77113L13.9351 5.28401L10.6387 8.5828C10.5405 8.68082 10.4985 8.82489 10.5258 8.96873L11.45 13.7931L7.61147 11.3243C7.49724 11.2508 7.36106 11.251 7.24683 11.3243L3.40833 13.7931L4.33252 8.96873C4.36 8.82501 4.31788 8.68071 4.21985 8.58292L0.923401 5.28413L5.3333 4.77142Z" fill="#F5CC26"/>
<path fill-rule="evenodd" clip-rule="evenodd" d="M23.3495 4.77142C23.4806 4.75608 23.5907 4.66712 23.6445 4.53294L25.4456 0.0253105L27.2467 4.53264C27.3001 4.66683 27.4103 4.75578 27.5416 4.77113L31.9513 5.28401L28.6549 8.5828C28.5568 8.68082 28.5147 8.82489 28.542 8.96873L29.4662 13.7931L25.6277 11.3243C25.5135 11.2508 25.3773 11.251 25.2631 11.3243L21.4246 13.7931L22.3488 8.96873C22.3762 8.82501 22.3341 8.68071 22.2361 8.58292L18.9396 5.28413L23.3495 4.77142Z" fill="#F5CC26"/>
<path fill-rule="evenodd" clip-rule="evenodd" d="M41.3658 4.77142C41.4968 4.75608 41.607 4.66712 41.6607 4.53294L43.4618 0.0253105L45.2629 4.53264C45.3164 4.66683 45.4265 4.75578 45.5579 4.77113L49.9676 5.28401L46.6711 8.5828C46.573 8.68082 46.531 8.82489 46.5583 8.96873L47.4824 13.7931L43.6439 11.3243C43.5297 11.2508 43.3935 11.251 43.2793 11.3243L39.4408 13.7931L40.365 8.96873C40.3925 8.82501 40.3504 8.68071 40.2523 8.58292L36.9559 5.28413L41.3658 4.77142Z" fill="#F5CC26"/>
<path fill-rule="evenodd" clip-rule="evenodd" d="M59.382 4.77142C59.513 4.75608 59.6232 4.66712 59.6769 4.53294L61.478 0.0253105L63.2792 4.53264C63.3326 4.66683 63.4427 4.75578 63.5741 4.77113L67.9838 5.28401L64.6873 8.5828C64.5892 8.68082 64.5472 8.82489 64.5745 8.96873L65.4987 13.7931L61.6601 11.3243C61.5459 11.2508 61.4097 11.251 61.2955 11.3243L57.457 13.7931L58.3812 8.96873C58.4087 8.82501 58.3666 8.68071 58.2685 8.58292L54.9721 5.28413L59.382 4.77142Z" fill="#F5CC26"/>
<path fill-rule="evenodd" clip-rule="evenodd" d="M77.3982 4.77142C77.5292 4.75608 77.6394 4.66712 77.6931 4.53294L79.4942 0.0253105L81.2954 4.53264C81.3488 4.66683 81.4589 4.75578 81.5903 4.77113L86 5.28401L82.7035 8.5828C82.6054 8.68082 82.5634 8.82489 82.5907 8.96873L83.5149 13.7931L79.6764 11.3243C79.5621 11.2508 79.4259 11.251 79.3117 11.3243L75.4732 13.7931L76.3974 8.96873C76.4249 8.82501 76.3828 8.68071 76.2847 8.58292L72.9883 5.28413L77.3982 4.77142Z" fill="#F5CC26"/>
</svg>
