<svg width="37" height="47" viewBox="0 0 37 47" fill="none" xmlns="http://www.w3.org/2000/svg">
<path d="M12.3162 29.7017L7.37606 27.455C7.12163 27.3401 6.82846 27.3613 6.59304 27.5116C6.35872 27.6619 6.21725 27.9207 6.21725 28.1987V32.6931C6.21725 33.0135 6.40442 33.3043 6.69686 33.4372L11.637 35.6835C11.7448 35.7327 11.8607 35.7568 11.9762 35.7568C12.1312 35.7568 12.2847 35.713 12.4193 35.6266C12.6536 35.4762 12.7951 35.2175 12.7951 34.9395V30.4454C12.7951 30.1258 12.6079 29.8346 12.3162 29.7017V29.7017ZM11.1573 33.6693L7.85492 32.1674V29.4697L11.1573 30.9716V33.6693Z" fill="white"/>
<path d="M30.6816 27.5123C30.4466 27.3608 30.153 27.34 29.8986 27.4557L24.9585 29.7024C24.6668 29.8352 24.4796 30.1264 24.4796 30.4464V34.9405C24.4796 35.2185 24.6211 35.4772 24.8554 35.6276C24.9899 35.7137 25.1435 35.7578 25.2985 35.7578C25.4136 35.7578 25.5295 35.7334 25.6377 35.6845L30.5778 33.4382C30.8706 33.3053 31.0574 33.0149 31.0574 32.6941V28.1994C31.0574 27.9213 30.9159 27.6626 30.6816 27.5122V27.5123ZM29.4198 32.1676L26.1173 33.6695V30.9718L29.4198 29.4699V32.1676Z" fill="white"/>
<path d="M36.5951 17.7515C36.5852 17.7252 36.5732 17.7019 36.5607 17.6767C36.5286 17.6121 36.4891 17.5537 36.4412 17.4993C36.4248 17.4811 36.4116 17.4614 36.3937 17.4446C36.329 17.3837 36.257 17.3297 36.1729 17.2917L36.1528 17.2826H36.1524L27.6452 13.4147V8.5824C27.6452 3.85005 23.7886 0 19.0474 0C14.3061 0 10.4495 3.85005 10.4495 8.5824V12.2606H7.99299C7.65009 12.2606 7.34376 12.4737 7.22533 12.794C7.10616 13.1148 7.19974 13.4757 7.46038 13.6983L7.99665 14.1569L1.10339 17.2914C1.01931 17.3294 0.94729 17.3834 0.882588 17.4443C0.864675 17.4611 0.85115 17.4808 0.8347 17.4994C0.786812 17.5534 0.746967 17.6122 0.715167 17.6768C0.702739 17.7016 0.690675 17.7249 0.680805 17.7512C0.647174 17.8417 0.623413 17.9359 0.623413 18.0358V38.3636C0.623413 38.684 0.810577 38.9748 1.10302 39.1076L18.2987 46.9263C18.3108 46.9318 18.324 46.9296 18.336 46.9343C18.4325 46.973 18.5331 47 18.6383 47C18.6405 47 18.6427 46.9985 18.6453 46.9985C18.7458 46.9974 18.8434 46.9723 18.9377 46.9347C18.9505 46.9296 18.9641 46.9318 18.9769 46.9263L36.1726 39.1076C36.4654 38.9745 36.6525 38.684 36.6525 38.3633V18.0364C36.6525 17.9364 36.6288 17.8423 36.5952 17.7521L36.5951 17.7515ZM11.268 13.8953C11.7206 13.8953 12.0869 13.5293 12.0869 13.0779V8.58235C12.0869 4.75126 15.2094 1.63469 19.0471 1.63469C22.8847 1.63469 26.0072 4.75126 26.0072 8.58235V16.3474H22.7318V8.58235C22.7318 6.55424 21.0788 4.90418 19.0471 4.90418C17.0153 4.90418 15.3623 6.55424 15.3623 8.58235V13.0779C15.3623 13.5293 15.7285 13.8953 16.1811 13.8953H17.2431L13.7246 16.9057L10.394 14.0558C10.3848 14.0285 10.387 14.0004 10.375 13.9737C10.3611 13.9431 10.3351 13.9234 10.3179 13.8953L11.268 13.8953ZM9.36719 15.33L13.192 18.6024C13.3448 18.7341 13.5352 18.7994 13.7246 18.7994C13.914 18.7994 14.1044 18.7341 14.2572 18.6027L19.9891 13.6985C20.2498 13.4759 20.3434 13.115 20.2242 12.7943C20.1057 12.4736 19.7994 12.2605 19.4565 12.2605H17V8.58229C17 7.45553 17.9179 6.53887 19.0471 6.53887C20.1763 6.53887 21.0942 7.45549 21.0942 8.58229V17.1647C21.0942 17.6161 21.4605 17.9821 21.913 17.9821H26.8261C27.2787 17.9821 27.645 17.6161 27.645 17.1647V15.2107L33.8583 18.0357L18.6381 24.9556L3.41793 18.0353L9.36719 15.33ZM2.26075 37.8371V19.3057L17.8188 26.3793V44.9107L2.26075 37.8371ZM19.4565 44.9111V26.3797L35.0145 19.3061V37.8375L19.4565 44.9111Z" fill="white"/>
</svg>
