<svg width="48" height="48" viewBox="0 0 48 48" fill="none" xmlns="http://www.w3.org/2000/svg">
<path d="M44.6238 17.8776C42.9816 17.8776 41.6439 19.2128 41.6439 20.8521V25.3847C40.6706 25.0804 39.5555 25.3106 38.7827 26.0821L32.8299 32.0241C27.5016 33.8417 26.4389 39.3903 26.2309 41.3562H26.1491C25.7403 41.3562 25.406 41.6898 25.406 42.098V46.7415C25.406 46.9416 25.4878 47.1274 25.6216 47.2681C25.7629 47.4092 25.9486 47.4833 26.1491 47.4833L38.2105 47.4536C38.6193 47.4536 38.9536 47.1199 38.9536 46.7118V42.0976C38.9536 41.6895 38.6193 41.3558 38.2105 41.3558H38.1585C38.2776 40.9109 38.5078 40.5027 38.8349 40.1691L46.3778 32.6397C47.1654 31.8536 47.5965 30.8075 47.5965 29.6948L47.5962 20.8524C47.6037 19.2131 46.2659 17.8778 44.6237 17.8778L44.6238 17.8776ZM37.4671 45.9777L26.8921 45.9999V42.8399H37.4671V45.9777ZM46.1176 29.7022C46.1176 30.4218 45.8353 31.0894 45.33 31.6014L37.7867 39.1232C37.1774 39.7315 36.7761 40.4954 36.6273 41.3263H27.7321C27.9476 39.4941 28.9436 34.828 33.4693 33.3741C33.5808 33.3369 33.6848 33.2778 33.7666 33.1887L39.8455 27.1207C40.3731 26.5941 41.2353 26.5941 41.7629 27.1207C42.0157 27.3731 42.1567 27.7142 42.1567 28.0776C42.1567 28.4409 42.0154 28.775 41.7629 29.0345L37.9061 32.8772C37.6163 33.1665 37.6163 33.634 37.9061 33.9233C38.1958 34.2125 38.6642 34.2125 38.954 33.9233L42.8108 30.0806C43.7917 29.0939 43.9033 27.566 43.1379 26.4605V26.4086V20.8374C43.1379 20.0141 43.8068 19.3464 44.6317 19.3464C45.4562 19.3464 46.1179 20.0287 46.1179 20.8521L46.1176 29.7022Z" fill="white"/>
<path d="M21.4899 41.3633H21.4081C21.2001 39.3976 20.1375 33.8486 14.8091 32.0312L8.85637 26.0892C8.0835 25.3177 6.97635 25.0879 5.99513 25.3918V20.8592C5.99513 19.22 4.65744 17.8847 3.01522 17.8847C1.38017 17.8772 0.0424805 19.2125 0.0424805 20.8518V29.7012C0.0424805 30.8139 0.473567 31.8599 1.26868 32.6462L8.81162 40.1755C9.14588 40.5092 9.36895 40.9173 9.48801 41.3623H9.43601C9.02716 41.3623 8.6929 41.6959 8.6929 42.1041V46.7182C8.6929 47.1263 9.02716 47.46 9.43601 47.46L21.4974 47.4897C21.6907 47.4897 21.884 47.4081 22.025 47.2746C22.1663 47.1335 22.2405 46.9481 22.2405 46.748V42.1044C22.233 41.6966 21.9059 41.363 21.4899 41.363L21.4899 41.3633ZM2.3166 31.6011C1.81127 31.0895 1.52867 30.4219 1.52867 29.7023V20.8519C1.52867 20.0285 2.19754 19.3609 3.02244 19.3609C3.84732 19.3609 4.51621 20.0285 4.51621 20.8519V26.4231V26.475C3.75086 27.5802 3.8624 29.1084 4.84329 30.0951L8.70011 33.9378C8.98989 34.227 9.45827 34.227 9.74807 33.9378C10.0379 33.6485 10.0379 33.181 9.74807 32.8917L5.89125 29.049C5.36369 28.5224 5.36369 27.6618 5.89125 27.1351C6.41881 26.6085 7.28096 26.6085 7.80858 27.1351L13.8875 33.2031C13.9693 33.2847 14.0733 33.3513 14.1848 33.3886C18.7626 34.8574 19.7212 39.501 19.922 41.3407H11.012C10.8635 40.5098 10.4622 39.7459 9.85251 39.1376L2.3166 31.6011ZM20.7463 45.9996L10.1713 45.9774V42.847H20.7463V45.9996Z" fill="white"/>
<path d="M32.2953 12.4851C32.2953 7.81896 28.4977 4.02844 23.8234 4.02844C19.1489 4.02844 15.3516 7.81923 15.3516 12.4851C15.3516 17.1512 19.1492 20.9417 23.8234 20.9417C28.498 20.9417 32.2953 17.1513 32.2953 12.4851ZM23.8234 19.4581C19.9738 19.4581 16.8378 16.3278 16.8378 12.4851C16.8378 8.64236 19.9738 5.51201 23.8234 5.51201C27.6731 5.51201 30.8091 8.64236 30.8091 12.4851C30.8091 16.3278 27.6731 19.4581 23.8234 19.4581Z" fill="white"/>
<path d="M29.01 30.0877C29.1438 30.3175 29.3891 30.4586 29.6566 30.4586H29.7233C30.0131 30.4364 30.2584 30.2434 30.3549 29.9764L31.8859 25.8146L36.2632 26.5714C36.5529 26.6233 36.8355 26.4973 36.9987 26.2671C37.1623 26.0298 37.177 25.7183 37.036 25.4735L33.6028 19.5389C34.0414 19.3907 34.4276 19.1605 34.673 18.7453C35.0965 18.011 34.7845 17.1579 34.517 16.4011C34.3757 16.0152 34.1899 15.4886 34.2419 15.281C34.2939 15.0956 34.725 14.7322 35.0072 14.4948C35.6388 13.9682 36.3449 13.3747 36.3449 12.4994C36.3449 11.6241 35.6316 11.0305 35.0072 10.5039C34.7175 10.2666 34.2864 9.90321 34.2419 9.71777C34.1824 9.51013 34.3757 8.98352 34.517 8.59765C34.792 7.84085 35.1041 6.98775 34.673 6.25353C34.2419 5.51176 33.3353 5.34848 32.5401 5.20746C32.1388 5.14086 31.5962 5.04421 31.4552 4.89599C31.3067 4.74778 31.2099 4.20614 31.1432 3.80551C31.0019 3.00431 30.8383 2.10678 30.0952 1.67646C29.3596 1.25367 28.505 1.55761 27.7469 1.83219C27.3602 1.97324 26.8326 2.15868 26.6247 2.10677C26.4389 2.05486 26.0749 1.62455 25.8371 1.33529C25.3096 0.704852 24.715 0 23.8381 0C22.9612 0 22.3666 0.712056 21.839 1.33529C21.6013 1.62455 21.2372 2.05486 21.0514 2.10677C20.8434 2.15868 20.3159 1.97324 19.9293 1.83219C19.1711 1.55761 18.3165 1.24615 17.581 1.67646C16.8379 2.10678 16.6743 3.01175 16.533 3.80551C16.4663 4.2061 16.3695 4.74772 16.221 4.89599C16.0725 5.04427 15.5299 5.14086 15.1285 5.20746C14.3108 5.33382 13.4117 5.48955 12.9807 6.23132C12.5571 6.96558 12.8691 7.81866 13.1367 8.57544C13.278 8.96135 13.4638 9.48801 13.4117 9.69556C13.3597 9.88101 12.9287 10.2444 12.6389 10.4817C12.0073 11.0083 11.3012 11.6019 11.3012 12.4772C11.3012 13.3525 12.0145 13.9461 12.6389 14.4726C12.9287 14.71 13.3597 15.0734 13.4042 15.2588C13.4638 15.4664 13.2705 15.9931 13.1292 16.3789C12.8541 17.1357 12.5421 17.9888 12.9731 18.723C13.2109 19.1383 13.6047 19.3685 14.0434 19.5167L10.6101 25.4512C10.4688 25.7036 10.4763 26.0076 10.6474 26.2449C10.8109 26.4823 11.0932 26.6011 11.383 26.5492L15.7602 25.7924L17.2912 29.9542C17.3877 30.2212 17.6405 30.4142 17.9228 30.4364H17.9895C18.2495 30.4364 18.5024 30.2953 18.6361 30.0655L22.1437 23.9975C22.597 24.5019 23.117 24.9619 23.8232 24.9619C24.5294 24.9619 25.0494 24.5019 25.5027 23.9975L29.01 30.0877ZM31.5295 24.2424C31.1726 24.1829 30.8309 24.3834 30.7046 24.7171L29.5082 27.9738L26.5802 22.9071C26.5949 22.8995 26.61 22.8849 26.6175 22.8849C26.8255 22.8329 27.3531 23.0184 27.7396 23.1594C28.4978 23.434 29.3524 23.738 30.088 23.3152C30.8311 22.8848 30.9947 21.9799 31.1359 21.1861C31.2027 20.7855 31.2995 20.2439 31.448 20.1031C31.5445 20.0068 31.8048 19.9399 32.0795 19.8805L34.948 24.8431L31.5295 24.2424ZM18.1456 27.9738L16.9491 24.7171C16.8229 24.3834 16.4811 24.183 16.1243 24.2424L12.6985 24.8359L15.5745 19.8734C15.8568 19.9328 16.1171 20.0069 16.2061 20.096C16.3545 20.2443 16.4514 20.7859 16.5181 21.1865C16.6594 21.9877 16.8229 22.8852 17.566 23.3156C18.3016 23.7384 19.1562 23.4344 19.9144 23.1598C20.301 23.0188 20.8286 22.8333 21.0365 22.8853C21.0512 22.8853 21.0663 22.9075 21.081 22.9075L18.1456 27.9738ZM23.8232 23.5006C23.6374 23.5006 23.1988 22.974 22.961 22.6919C22.5152 22.1653 22.0543 21.6161 21.4153 21.4457C21.2593 21.4013 21.1033 21.3863 20.9473 21.3863C20.4344 21.3863 19.9144 21.5717 19.4091 21.7572C19.082 21.876 18.4652 22.0984 18.3091 22.0242C18.1678 21.9426 18.0416 21.2528 17.982 20.9191C17.863 20.2292 17.7367 19.5172 17.2536 19.0424C16.7781 18.5677 16.0648 18.4417 15.3736 18.3153C15.0394 18.2559 14.3479 18.1374 14.2665 17.9889C14.1922 17.8331 14.4149 17.2174 14.534 16.8909C14.7718 16.2307 15.0246 15.5409 14.846 14.8807C14.675 14.2428 14.1252 13.7827 13.5976 13.3378C13.3153 13.1004 12.7874 12.6554 12.7874 12.4772C12.7874 12.2917 13.315 11.8539 13.5976 11.6165C14.1251 11.1715 14.6753 10.7115 14.846 10.0736C15.0243 9.41346 14.7718 8.73081 14.534 8.06347C14.4149 7.73698 14.1922 7.12126 14.2665 6.96546C14.3482 6.82442 15.0393 6.6984 15.3736 6.63897C16.0647 6.52012 16.7781 6.39411 17.2536 5.91189C17.7292 5.43718 17.8555 4.72514 17.982 4.03525C18.0416 3.70159 18.1603 3.01138 18.3091 2.93008C18.4651 2.86348 19.082 3.07829 19.4091 3.19714C20.0704 3.43449 20.7615 3.68688 21.4229 3.5086C22.062 3.33785 22.5229 2.78903 22.9686 2.26241C23.2064 1.98065 23.6522 1.4537 23.8307 1.4537C24.009 1.4537 24.4551 1.98031 24.6929 2.26241C25.1387 2.78902 25.5996 3.33821 26.2386 3.5086C26.9 3.68654 27.5839 3.43449 28.2524 3.19714C28.5795 3.07829 29.1963 2.85597 29.3524 2.93008C29.5009 3.0117 29.6199 3.70156 29.6795 4.03525C29.7985 4.72511 29.9248 5.43716 30.4079 5.91189C30.8834 6.3866 31.5967 6.51261 32.2879 6.63146C32.6221 6.69089 33.3136 6.8094 33.395 6.95795C33.4693 7.11368 33.2466 7.72944 33.1275 8.05596C32.8897 8.71611 32.6369 9.40593 32.8155 10.0661C32.9865 10.7041 33.5363 11.1641 34.0639 11.609C34.3462 11.8464 34.8741 12.2842 34.8741 12.4697C34.8741 12.6551 34.3465 13.0929 34.0639 13.3303C33.5363 13.7753 32.9862 14.2353 32.8155 14.8732C32.6372 15.5333 32.8897 16.216 33.1275 16.8833C33.2466 17.217 33.4693 17.8256 33.395 17.9813C33.3133 18.1224 32.6222 18.2484 32.2879 18.3078C31.5968 18.4267 30.8834 18.5527 30.4079 19.0349C29.9323 19.5096 29.806 20.2217 29.6795 20.9116C29.6199 21.2452 29.5012 21.9354 29.3524 22.0167C29.1964 22.0833 28.5795 21.8685 28.2524 21.7497C27.5911 21.5123 26.9 21.2599 26.2386 21.4382C25.5995 21.609 25.1386 22.1578 24.6929 22.6844C24.4476 22.974 24.009 23.5006 23.8232 23.5006L23.8232 23.5006Z" fill="white"/>
<path d="M27.3608 9.06473L22.0845 14.3316L20.2859 12.5362C19.9961 12.247 19.5277 12.247 19.2379 12.5362C18.9482 12.8255 18.9482 13.293 19.2379 13.5823L21.5566 15.8968C21.7051 16.045 21.8908 16.1119 22.0841 16.1119C22.2774 16.1119 22.4632 16.0378 22.6117 15.8968L28.4156 10.1033C28.7054 9.81403 28.7054 9.3465 28.4156 9.05722C28.1265 8.76829 27.6506 8.77546 27.3609 9.06473L27.3608 9.06473Z" fill="white"/>
</svg>
