<svg width="48" height="38" viewBox="0 0 48 38" fill="none" xmlns="http://www.w3.org/2000/svg">
<path d="M41.4082 13.5098C41.2659 13.3884 41.0852 13.3217 40.8981 13.3217H33.0507V7.05501C33.0507 6.84729 32.968 6.64795 32.8208 6.50108C32.6737 6.35421 32.474 6.27168 32.2659 6.27168H29.127V7.83834H31.4812V32.1216H12.5765C12.4833 31.5701 12.2921 31.0392 12.0118 30.5549H26.773C26.9811 30.5549 27.1808 30.4724 27.3279 30.3255C27.4751 30.1786 27.5577 29.9793 27.5577 29.7716V15.6716H29.1272C29.3353 15.6716 29.535 15.5891 29.6822 15.4422C29.8293 15.2954 29.912 15.096 29.912 14.8883V10.1883C29.912 9.98061 29.8293 9.78127 29.6822 9.6344C29.535 9.48753 29.3353 9.405 29.1272 9.405H20.5813L23.9791 6.75743L24.0576 6.69484H24.058C25.0504 5.70417 25.438 4.25989 25.0746 2.90692C24.7113 1.55359 23.6523 0.49641 22.2965 0.13375C20.9411 -0.228891 19.4942 0.15788 18.5017 1.14859L18.439 1.22692L16.5714 3.62409L14.7038 1.22692L14.6411 1.14859C13.6487 0.157922 12.2018 -0.228909 10.8464 0.13375C9.49061 0.496392 8.43153 1.5535 8.06821 2.90692C7.70492 4.25989 8.09239 5.70417 9.08488 6.69484L9.16335 6.75743L12.5693 9.405H4.01563C3.58227 9.405 3.23089 9.75575 3.23089 10.1883V14.8883C3.23089 15.096 3.31356 15.2954 3.4607 15.4422C3.60784 15.5891 3.80753 15.6716 4.01563 15.6716H5.58511V28.8397C4.37257 29.5401 3.53563 30.7435 3.30165 32.1219H1.6614V7.8387H4.01563V6.27204H0.876661C0.443304 6.27204 0.0919189 6.62279 0.0919189 7.05537V32.9053C0.0919189 33.113 0.174598 33.3123 0.321736 33.4592C0.468875 33.6061 0.668565 33.6886 0.876661 33.6886H3.30165C3.55844 35.1528 4.49419 36.4093 5.82475 37.0769C7.15495 37.7445 8.72372 37.7445 10.0539 37.0769C11.3845 36.4093 12.3203 35.1528 12.577 33.6886H34.6915C34.9483 35.1528 35.884 36.4093 37.2146 37.0769C38.5448 37.7445 40.1136 37.7445 41.4438 37.0769C42.7743 36.4093 43.7101 35.1528 43.9669 33.6886H46.3919C46.6 33.6886 46.7996 33.6061 46.9468 33.4592C47.0939 33.3123 47.1766 33.113 47.1766 32.9053V18.8053C47.1766 18.5763 47.0764 18.3588 46.9019 18.2101L41.4082 13.5098ZM13.4319 28.9884H10.5361C9.76604 28.4785 8.8629 28.2061 7.9387 28.2051C7.6756 28.2089 7.41355 28.2323 7.15396 28.2757V15.6717H13.4319V28.9884ZM18.1403 28.9884H15.0014V15.6718H18.1403V28.9884ZM25.9878 28.9884H19.7098V15.6718H25.9878V28.9884ZM10.1674 5.55116C9.73576 5.11194 9.49438 4.52128 9.49438 3.90616C9.49438 3.29104 9.73576 2.70037 10.1674 2.26117C10.6147 1.84503 11.2037 1.61352 11.8153 1.61352C12.4267 1.61352 13.0156 1.84502 13.4633 2.26117L15.9195 5.39449C16.068 5.58578 16.2968 5.69768 16.5392 5.69768C16.7816 5.69768 17.0108 5.58578 17.1593 5.39449L19.6155 2.26117C20.0629 1.84503 20.6518 1.61352 21.2635 1.61352C21.8751 1.61352 22.4641 1.84502 22.9114 2.26117C23.3427 2.70039 23.5844 3.29105 23.5844 3.90616C23.5844 4.52129 23.3427 5.11195 22.9114 5.55116L19.7725 8.00294C19.0438 6.92024 17.8225 6.27084 16.5158 6.27084C15.2091 6.27084 13.9881 6.92023 13.2592 8.00294L10.1674 5.55116ZM18.9249 10.1886C18.9249 10.8117 18.6769 11.4098 18.2355 11.8503C17.794 12.2908 17.1949 12.5385 16.5707 12.5385C15.9465 12.5385 15.3473 12.2909 14.906 11.8503C14.4647 11.4097 14.2165 10.8116 14.2165 10.1886C14.2165 9.56548 14.4646 8.96737 14.906 8.52683C15.3474 8.08628 15.9465 7.83862 16.5707 7.83862C17.1949 7.83862 17.7941 8.0862 18.2355 8.52683C18.6768 8.96745 18.9249 9.56548 18.9249 10.1886ZM4.79956 14.1052V10.9719H12.7254C12.9675 12.1616 13.7484 13.1722 14.84 13.7076C15.9313 14.243 17.21 14.243 18.3013 13.7076C19.393 13.1722 20.1739 12.1616 20.4159 10.9719H28.3418V14.1052H4.79956ZM7.93852 36.0385C7.10614 36.0385 6.3077 35.7083 5.71883 35.1208C5.13027 34.533 4.79956 33.736 4.79956 32.9051C4.79956 32.0743 5.13027 31.2772 5.71883 30.6894C6.30773 30.1019 7.10616 29.7718 7.93852 29.7718C8.77089 29.7718 9.56935 30.1019 10.1582 30.6894C10.7468 31.2773 11.0775 32.0743 11.0775 32.9051C11.0775 33.736 10.7468 34.533 10.1582 35.1208C9.56931 35.7083 8.77089 36.0385 7.93852 36.0385ZM39.3282 36.0385C38.4958 36.0385 37.6974 35.7083 37.1085 35.1208C36.5199 34.533 36.1892 33.736 36.1892 32.9051C36.1892 32.0743 36.5199 31.2772 37.1085 30.6894C37.6974 30.1019 38.4958 29.7718 39.3282 29.7718C40.1606 29.7718 40.959 30.1019 41.5479 30.6894C42.1364 31.2773 42.4672 32.0743 42.4672 32.9051C42.4672 33.736 42.1364 34.533 41.5479 35.1208C40.959 35.7083 40.1606 36.0385 39.3282 36.0385ZM45.6061 28.2052H44.0366V29.7718H45.6061V32.1218H43.9659C43.7091 30.6577 42.7733 29.4011 41.4428 28.7335C40.1126 28.066 38.5438 28.066 37.2136 28.7335C35.883 29.4011 34.9473 30.6576 34.6905 32.1218H33.0503V14.8885H40.6073L45.6061 19.1653V28.2052Z" fill="white"/>
<path d="M39.3283 16.4551H35.4046C34.9713 16.4551 34.6199 16.8058 34.6199 17.2384V25.855C34.6199 26.0628 34.7026 26.2621 34.8497 26.409C34.9968 26.5558 35.1965 26.6384 35.4046 26.6384H43.252C43.4601 26.6384 43.6598 26.5558 43.807 26.409C43.9541 26.2621 44.0368 26.0628 44.0368 25.855V20.3717C44.0357 20.1332 43.9261 19.9084 43.7386 19.7608L39.8149 16.6275C39.6769 16.517 39.5052 16.4561 39.3283 16.4551ZM42.4673 25.0717H36.1894V18.0217H39.0537L42.4673 20.7476V25.0717Z" fill="white"/>
<path d="M15.786 8.62195V9.40528H15.0013V10.9719H15.786V11.7553H17.3555V10.9719H18.1402V9.40528H17.3555V8.62195H15.786Z" fill="white"/>
<path d="M5.58447 6.27197H7.15396V7.83863H5.58447V6.27197Z" fill="white"/>
<path d="M25.9877 6.27197H27.5572V7.83863H25.9877V6.27197Z" fill="white"/>
</svg>
