<svg width="44" height="38" viewBox="0 0 44 38" fill="none" xmlns="http://www.w3.org/2000/svg">
<path d="M40.3226 38H3.66388C2.91623 38 2.19893 37.7034 1.66998 37.1756C1.14126 36.6475 0.844116 35.9316 0.844116 35.1853V2.81469C0.844116 2.06839 1.14123 1.35238 1.66998 0.824382C2.199 0.296609 2.91626 0 3.66388 0H40.3226C41.0703 0 41.7876 0.296579 42.3165 0.824382C42.8452 1.35245 43.1424 2.06842 43.1424 2.81469V35.1853C43.1424 35.9316 42.8453 36.6476 42.3165 37.1756C41.7875 37.7034 41.0702 38 40.3226 38ZM3.66388 1.40795C3.29006 1.40795 2.93128 1.55609 2.66693 1.81997C2.40258 2.08386 2.25416 2.44199 2.25416 2.81513V35.1857C2.25416 35.5589 2.40257 35.917 2.66693 36.1809C2.93129 36.4448 3.29007 36.5929 3.66388 36.5929H40.3226C40.6964 36.5929 41.0552 36.4448 41.3196 36.1809C41.5839 35.917 41.7323 35.5589 41.7323 35.1857V2.81513C41.7323 2.44198 41.5839 2.08385 41.3196 1.81997C41.0552 1.5561 40.6964 1.40795 40.3226 1.40795H3.66388Z" fill="white"/>
<path d="M6.48422 7.03691C5.92334 7.03691 5.38515 6.81455 4.98861 6.41872C4.59207 6.02289 4.36931 5.48569 4.36931 4.9258C4.36931 4.36591 4.59207 3.82901 4.98861 3.43318C5.38515 3.03735 5.92332 2.8147 6.48422 2.8147C7.04512 2.8147 7.58299 3.03735 7.97953 3.43318C8.37607 3.82901 8.59913 4.36591 8.59913 4.9258C8.59913 5.48569 8.37607 6.02289 7.97953 6.41872C7.58299 6.81455 7.04512 7.03691 6.48422 7.03691ZM6.48422 4.22222C6.19891 4.22222 5.94192 4.39362 5.83276 4.65663C5.72359 4.91963 5.78408 5.22239 5.98559 5.42356C6.18711 5.62472 6.49042 5.68509 6.7539 5.57611C7.01738 5.46714 7.1891 5.21062 7.1891 4.92582C7.1891 4.73939 7.11474 4.56032 6.98256 4.42838C6.85038 4.29644 6.67099 4.22222 6.48422 4.22222Z" fill="white"/>
<path d="M12.1235 7.03691C11.5626 7.03691 11.0247 6.81455 10.6281 6.41872C10.2316 6.02289 10.0085 5.48569 10.0085 4.9258C10.0085 4.36591 10.2316 3.82901 10.6281 3.43318C11.0247 3.03735 11.5625 2.8147 12.1235 2.8147C12.6844 2.8147 13.2225 3.03735 13.6191 3.43318C14.0156 3.82901 14.2384 4.36591 14.2384 4.9258C14.2384 5.48569 14.0156 6.02289 13.6191 6.41872C13.2225 6.81455 12.6844 7.03691 12.1235 7.03691ZM12.1235 4.22222C11.8384 4.22222 11.5814 4.39362 11.4723 4.65663C11.3631 4.91963 11.4233 5.22239 11.6251 5.42356C11.8266 5.62472 12.1299 5.68509 12.3934 5.57611C12.6569 5.46714 12.8286 5.21062 12.8286 4.92582C12.8286 4.73939 12.7543 4.56032 12.6221 4.42838C12.4899 4.29644 12.3105 4.22222 12.1235 4.22222Z" fill="white"/>
<path d="M42.4375 9.85243H1.54898C1.15982 9.85243 0.844116 9.5373 0.844116 9.14854C0.844116 8.76008 1.15982 8.44495 1.54898 8.44495H42.4375C42.8267 8.44495 43.1424 8.76008 43.1424 9.14854C43.1424 9.5373 42.8267 9.85243 42.4375 9.85243Z" fill="white"/>
<path d="M36.7975 9.85235C36.4081 9.85235 36.0927 9.53722 36.0927 9.14846V0.704086C36.0927 0.315622 36.4081 0.000488281 36.7975 0.000488281C37.187 0.000488281 37.5024 0.315622 37.5024 0.704086V9.14846C37.5024 9.33519 37.4283 9.51426 37.2962 9.6462C37.1637 9.77814 36.9846 9.85236 36.7975 9.85236L36.7975 9.85235Z" fill="white"/>
<path d="M21.9932 34.4812C19.7497 34.4812 17.5979 33.5917 16.0115 32.0078C14.425 30.4242 13.5336 28.2766 13.5336 26.0368C13.5336 23.7973 14.425 21.6494 16.0115 20.0658C17.5979 18.4822 19.7497 17.5924 21.9932 17.5924C24.2368 17.5924 26.3885 18.4822 27.975 20.0658C29.5615 21.6494 30.4528 23.7973 30.4528 26.0368C30.4505 28.2757 29.5582 30.4221 27.9723 32.0052C26.3865 33.5885 24.2361 34.4788 21.9932 34.4812ZM21.9932 19.0001C20.1235 19.0001 18.3305 19.7414 17.0084 21.0611C15.6863 22.3808 14.9437 24.1706 14.9437 26.0369C14.9437 27.9033 15.6863 29.6934 17.0084 31.0128C18.3305 32.3325 20.1235 33.0741 21.9932 33.0741C23.8629 33.0741 25.6559 32.3325 26.978 31.0128C28.3002 29.6934 29.0428 27.9033 29.0428 26.0369C29.0407 24.1715 28.2975 22.3826 26.9757 21.0634C25.6542 19.7443 23.8623 19.0021 21.9932 19.0001Z" fill="white"/>
<path d="M24.8128 19C24.4237 19 24.108 18.6849 24.108 18.2964V15.4814C24.108 14.7272 23.7049 14.0304 23.0505 13.6534C22.3961 13.2761 21.59 13.2761 20.9356 13.6534C20.2812 14.0304 19.8782 14.7272 19.8782 15.4814V18.2964C19.8782 18.6849 19.5625 19 19.1733 19C18.7839 19 18.4682 18.6849 18.4682 18.2964V15.4814C18.4682 14.2244 19.14 13.0629 20.2308 12.4344C21.3213 11.8059 22.6649 11.8059 23.7554 12.4344C24.8462 13.0629 25.518 14.2244 25.518 15.4814V18.2964C25.518 18.4829 25.4437 18.6619 25.3115 18.7939C25.1793 18.9258 24.9999 19 24.8128 19L24.8128 19Z" fill="white"/>
<path d="M21.9932 27.4444C21.2453 27.4444 20.5281 27.1478 19.9993 26.62C19.4706 26.0919 19.1735 25.376 19.1735 24.6297C19.1735 23.8831 19.4706 23.1672 19.9993 22.6394C20.5281 22.1113 21.2453 21.8147 21.9932 21.8147C22.7411 21.8147 23.4584 22.1113 23.9871 22.6394C24.5158 23.1672 24.813 23.8831 24.813 24.6297C24.813 25.376 24.5159 26.092 23.9871 26.62C23.4584 27.1478 22.7411 27.4444 21.9932 27.4444ZM21.9932 23.2222C21.6194 23.2222 21.2606 23.3703 20.9963 23.6345C20.7319 23.8984 20.5832 24.2562 20.5832 24.6297C20.5832 25.0028 20.7319 25.361 20.9963 25.6248C21.2606 25.8887 21.6194 26.0369 21.9932 26.0369C22.367 26.0369 22.7258 25.8887 22.9902 25.6248C23.2545 25.3609 23.4032 25.0028 23.4032 24.6297C23.4032 24.2562 23.2545 23.8984 22.9902 23.6345C22.7258 23.3703 22.367 23.2222 21.9932 23.2222Z" fill="white"/>
<path d="M21.9932 30.2592C21.6038 30.2592 21.2884 29.9443 21.2884 29.5556V26.7409C21.2884 26.3521 21.6038 26.037 21.9932 26.037C22.3827 26.037 22.6981 26.3521 22.6981 26.7409V29.5556C22.6981 29.7423 22.624 29.9211 22.4919 30.0533C22.3594 30.1853 22.1803 30.2592 21.9932 30.2592L21.9932 30.2592Z" fill="white"/>
</svg>
